<svg xmlns="http://www.w3.org/2000/svg" viewBox="14.06 27.67 91.87 91.87" width="240" height="240"><defs><radialGradient id="grf39a3d" cx=".35" cy=".3" r=".75"><stop offset="0" stop-color="#f8c794"/><stop offset=".55" stop-color="#f39a3d"/><stop offset="1" stop-color="#9e6428"/></radialGradient><radialGradient id="gre2443b" cx=".35" cy=".3" r=".75"><stop offset="0" stop-color="#ef9893"/><stop offset=".55" stop-color="#e2443b"/><stop offset="1" stop-color="#932c26"/></radialGradient><radialGradient id="grecbc2c" cx=".35" cy=".3" r=".75"><stop offset="0" stop-color="#f5da8b"/><stop offset=".55" stop-color="#ecbc2c"/><stop offset="1" stop-color="#997a1d"/></radialGradient><linearGradient id="gh2f6fb0" x1="0" x2="1" y1="0" y2="0"><stop offset="0" stop-color="#6997c6"/><stop offset=".45" stop-color="#2f6fb0"/><stop offset="1" stop-color="#204b78"/></linearGradient><linearGradient id="ghe6c27a" x1="0" x2="1" y1="0" y2="0"><stop offset="0" stop-color="#edd39f"/><stop offset=".45" stop-color="#e6c27a"/><stop offset="1" stop-color="#9c8453"/></linearGradient><radialGradient id="gr3fbf7f" cx=".35" cy=".3" r=".75"><stop offset="0" stop-color="#95dcb9"/><stop offset=".55" stop-color="#3fbf7f"/><stop offset="1" stop-color="#297c53"/></radialGradient><radialGradient id="gre06aa6" cx=".35" cy=".3" r=".75"><stop offset="0" stop-color="#eeadce"/><stop offset=".55" stop-color="#e06aa6"/><stop offset="1" stop-color="#92456c"/></radialGradient><linearGradient id="gha8673f" x1="0" x2="1" y1="0" y2="0"><stop offset="0" stop-color="#c09275"/><stop offset=".45" stop-color="#a8673f"/><stop offset="1" stop-color="#72462b"/></linearGradient><radialGradient id="gr3f8f55" cx=".35" cy=".3" r=".75"><stop offset="0" stop-color="#95c1a2"/><stop offset=".55" stop-color="#3f8f55"/><stop offset="1" stop-color="#295d37"/></radialGradient><radialGradient id="gr2f9d63" cx=".35" cy=".3" r=".75"><stop offset="0" stop-color="#8dc9a9"/><stop offset=".55" stop-color="#2f9d63"/><stop offset="1" stop-color="#1f6640"/></radialGradient></defs><ellipse cx="60" cy="109" rx="40" ry="7" fill="#1a2332" opacity=".16"/><path d="M15.83 86.63L60 112.13L60 105.5L15.83 80Z" fill="#129287" stroke="#1a2332" stroke-opacity=".28" stroke-width=".5" stroke-linejoin="round"/><path d="M104.17 86.63L60 112.13L60 105.5L104.17 80Z" fill="#0d6961" stroke="#1a2332" stroke-opacity=".28" stroke-width=".5" stroke-linejoin="round"/><path d="M60 54.5L104.17 80L60 105.5L15.83 80Z" fill="#8fcf7a" stroke="#1a2332" stroke-opacity=".28" stroke-width=".5" stroke-linejoin="round"/><path d="M46.75 62.12L90.92 87.62L71.04 99.1L26.87 73.6Z" fill="#5aa9a0"/><path d="M37.92 67.2q2 -1.2 4 0t4 0" stroke="#ffffff" stroke-opacity=".7" stroke-width=".8" fill="none" stroke-linecap="round"/><path d="M37.92 74.85q2 -1.2 4 0t4 0" stroke="#ffffff" stroke-opacity=".7" stroke-width=".8" fill="none" stroke-linecap="round"/><path d="M37.92 82.5q2 -1.2 4 0t4 0" stroke="#ffffff" stroke-opacity=".7" stroke-width=".8" fill="none" stroke-linecap="round"/><path d="M53.15 63.55L54.26 64.19L54.26 58.07L53.15 57.43Z" fill="#a8673f" stroke="#1a2332" stroke-opacity=".28" stroke-width=".5" stroke-linejoin="round"/><path d="M55.36 63.55L54.26 64.19L54.26 58.07L55.36 57.43Z" fill="#7e4d2f" stroke="#1a2332" stroke-opacity=".28" stroke-width=".5" stroke-linejoin="round"/><path d="M54.26 56.8L55.36 57.43L54.26 58.07L53.15 57.43Z" fill="#bb8869" stroke="#1a2332" stroke-opacity=".28" stroke-width=".5" stroke-linejoin="round"/><path d="M62.87 69.16L63.98 69.8L63.98 63.68L62.87 63.04Z" fill="#a8673f" stroke="#1a2332" stroke-opacity=".28" stroke-width=".5" stroke-linejoin="round"/><path d="M65.08 69.16L63.98 69.8L63.98 63.68L65.08 63.04Z" fill="#7e4d2f" stroke="#1a2332" stroke-opacity=".28" stroke-width=".5" stroke-linejoin="round"/><path d="M63.98 62.41L65.08 63.04L63.98 63.68L62.87 63.04Z" fill="#bb8869" stroke="#1a2332" stroke-opacity=".28" stroke-width=".5" stroke-linejoin="round"/><path d="M52.93 57.56L63.98 63.94L63.98 55.27L52.93 48.89Z" fill="#b8794a" stroke="#1a2332" stroke-opacity=".28" stroke-width=".5" stroke-linejoin="round"/><path d="M74.13 58.07L63.98 63.94L63.98 55.27L74.13 49.4Z" fill="#8a5b38" stroke="#1a2332" stroke-opacity=".28" stroke-width=".5" stroke-linejoin="round"/><path d="M63.09 43.03L74.13 49.4L63.98 55.27L52.93 48.89Z" fill="#c89672" stroke="#1a2332" stroke-opacity=".28" stroke-width=".5" stroke-linejoin="round"/><path d="M63.09 41.5L76.78 49.4L70.38 46.47L56.69 38.56Z" fill="#9f7858" stroke="#1a2332" stroke-opacity=".28" stroke-width=".5" stroke-linejoin="round"/><path d="M74.13 49.4L63.98 55.27L69.05 45.7Z" fill="#7f532f" stroke="#1a2332" stroke-opacity=".28" stroke-width=".5" stroke-linejoin="round"/><path d="M50.28 48.89L63.98 56.79L70.38 46.47L56.69 38.56Z" fill="#8a5a33" stroke="#1a2332" stroke-opacity=".28" stroke-width=".5" stroke-linejoin="round"/><path d="M66.4 71.2L67.51 71.84L67.51 65.72L66.4 65.08Z" fill="#a8673f" stroke="#1a2332" stroke-opacity=".28" stroke-width=".5" stroke-linejoin="round"/><path d="M68.61 71.2L67.51 71.84L67.51 65.72L68.61 65.08Z" fill="#7e4d2f" stroke="#1a2332" stroke-opacity=".28" stroke-width=".5" stroke-linejoin="round"/><path d="M67.51 64.44L68.61 65.08L67.51 65.72L66.4 65.08Z" fill="#bb8869" stroke="#1a2332" stroke-opacity=".28" stroke-width=".5" stroke-linejoin="round"/><path d="M76.12 76.81L77.23 77.45L77.23 71.33L76.12 70.69Z" fill="#a8673f" stroke="#1a2332" stroke-opacity=".28" stroke-width=".5" stroke-linejoin="round"/><path d="M78.33 76.81L77.23 77.45L77.23 71.33L78.33 70.69Z" fill="#7e4d2f" stroke="#1a2332" stroke-opacity=".28" stroke-width=".5" stroke-linejoin="round"/><path d="M77.23 70.05L78.33 70.69L77.23 71.33L76.12 70.69Z" fill="#bb8869" stroke="#1a2332" stroke-opacity=".28" stroke-width=".5" stroke-linejoin="round"/><path d="M66.18 65.21L77.23 71.58L77.23 62.92L66.18 56.54Z" fill="#c98b52" stroke="#1a2332" stroke-opacity=".28" stroke-width=".5" stroke-linejoin="round"/><path d="M87.38 65.72L77.23 71.58L77.23 62.92L87.38 57.05Z" fill="#97683e" stroke="#1a2332" stroke-opacity=".28" stroke-width=".5" stroke-linejoin="round"/><path d="M76.34 50.68L87.38 57.05L77.23 62.92L66.18 56.54Z" fill="#d5a578" stroke="#1a2332" stroke-opacity=".28" stroke-width=".5" stroke-linejoin="round"/><path d="M76.34 49.15L90.03 57.05L83.63 54.12L69.94 46.21Z" fill="#e0665e" stroke="#1a2332" stroke-opacity=".28" stroke-width=".5" stroke-linejoin="round"/><path d="M87.38 57.05L77.23 62.92L82.3 53.35Z" fill="#e2ded4" stroke="#1a2332" stroke-opacity=".28" stroke-width=".5" stroke-linejoin="round"/><path d="M63.53 56.54L77.23 64.44L83.63 54.12L69.94 46.21Z" fill="#d9443b" stroke="#1a2332" stroke-opacity=".28" stroke-width=".5" stroke-linejoin="round"/><path d="M79.65 78.85L80.76 79.49L80.76 73.37L79.65 72.73Z" fill="#a8673f" stroke="#1a2332" stroke-opacity=".28" stroke-width=".5" stroke-linejoin="round"/><path d="M81.86 78.85L80.76 79.49L80.76 73.37L81.86 72.73Z" fill="#7e4d2f" stroke="#1a2332" stroke-opacity=".28" stroke-width=".5" stroke-linejoin="round"/><path d="M80.76 72.1L81.86 72.73L80.76 73.37L79.65 72.73Z" fill="#bb8869" stroke="#1a2332" stroke-opacity=".28" stroke-width=".5" stroke-linejoin="round"/><path d="M89.37 84.46L90.48 85.1L90.48 78.98L89.37 78.34Z" fill="#a8673f" stroke="#1a2332" stroke-opacity=".28" stroke-width=".5" stroke-linejoin="round"/><path d="M91.58 84.46L90.48 85.1L90.48 78.98L91.58 78.34Z" fill="#7e4d2f" stroke="#1a2332" stroke-opacity=".28" stroke-width=".5" stroke-linejoin="round"/><path d="M90.48 77.71L91.58 78.34L90.48 78.98L89.37 78.34Z" fill="#bb8869" stroke="#1a2332" stroke-opacity=".28" stroke-width=".5" stroke-linejoin="round"/><path d="M79.43 72.86L90.48 79.24L90.48 70.57L79.43 64.19Z" fill="#b8794a" stroke="#1a2332" stroke-opacity=".28" stroke-width=".5" stroke-linejoin="round"/><path d="M100.63 73.37L90.48 79.24L90.48 70.57L100.63 64.7Z" fill="#8a5b38" stroke="#1a2332" stroke-opacity=".28" stroke-width=".5" stroke-linejoin="round"/><path d="M89.59 58.33L100.63 64.7L90.48 70.57L79.43 64.19Z" fill="#c89672" stroke="#1a2332" stroke-opacity=".28" stroke-width=".5" stroke-linejoin="round"/><path d="M89.59 56.8L103.28 64.7L96.88 61.77L83.19 53.86Z" fill="#9f7858" stroke="#1a2332" stroke-opacity=".28" stroke-width=".5" stroke-linejoin="round"/><path d="M100.63 64.7L90.48 70.57L95.55 61Z" fill="#7f532f" stroke="#1a2332" stroke-opacity=".28" stroke-width=".5" stroke-linejoin="round"/><path d="M76.78 64.19L90.48 72.1L96.88 61.77L83.19 53.86Z" fill="#8a5a33" stroke="#1a2332" stroke-opacity=".28" stroke-width=".5" stroke-linejoin="round"/><path d="M50.06 67.89L67.73 77.58L69.94 78.85L63.31 80.13L45.65 70.44Z" fill="#7a4a2a" stroke="#1a2332" stroke-opacity=".28" stroke-width=".5" stroke-linejoin="round"/><path d="M46.97 70.18L63.75 79.87L63.75 77.83L46.97 68.14Z" fill="#8a5a33" stroke="#1a2332" stroke-opacity=".28" stroke-width=".5" stroke-linejoin="round"/><path d="M67.29 77.83L63.75 79.87L63.75 77.83L67.29 75.79Z" fill="#684426" stroke="#1a2332" stroke-opacity=".28" stroke-width=".5" stroke-linejoin="round"/><path d="M50.5 66.1L67.29 75.79L63.75 77.83L46.97 68.14Z" fill="#a47e60" stroke="#1a2332" stroke-opacity=".28" stroke-width=".5" stroke-linejoin="round"/><circle cx="58.9" cy="71.46" r="1.78" fill="url(#grf39a3d)" stroke="#1a2332" stroke-opacity=".28" stroke-width=".5" stroke-linejoin="round"/><circle cx="61.55" cy="72.99" r="1.78" fill="url(#gre2443b)" stroke="#1a2332" stroke-opacity=".28" stroke-width=".5" stroke-linejoin="round"/><circle cx="63.75" cy="74.26" r="1.78" fill="url(#grecbc2c)" stroke="#1a2332" stroke-opacity=".28" stroke-width=".5" stroke-linejoin="round"/><path d="M50.4 69.16L50.71 65.08L53.83 65.08L54.14 69.16A1.87 1.08 0 0 1 50.4 69.16Z" fill="url(#gh2f6fb0)" stroke="#1a2332" stroke-opacity=".28" stroke-width=".5" stroke-linejoin="round"/><path d="M45.4 65.08L51.65 61.51L52.9 61.51L59.14 65.08A6.87 3.97 0 0 1 45.4 65.08Z" fill="url(#ghe6c27a)" stroke="#1a2332" stroke-opacity=".28" stroke-width=".5" stroke-linejoin="round"/><path d="M54.26 80.77L71.93 90.46L74.13 91.73L67.51 93.01L49.84 83.32Z" fill="#7a4a2a" stroke="#1a2332" stroke-opacity=".28" stroke-width=".5" stroke-linejoin="round"/><path d="M51.17 83.06L67.95 92.75L67.95 90.71L51.17 81.02Z" fill="#8a5a33" stroke="#1a2332" stroke-opacity=".28" stroke-width=".5" stroke-linejoin="round"/><path d="M71.48 90.71L67.95 92.75L67.95 90.71L71.48 88.67Z" fill="#684426" stroke="#1a2332" stroke-opacity=".28" stroke-width=".5" stroke-linejoin="round"/><path d="M54.7 78.98L71.48 88.67L67.95 90.71L51.17 81.02Z" fill="#a47e60" stroke="#1a2332" stroke-opacity=".28" stroke-width=".5" stroke-linejoin="round"/><circle cx="63.09" cy="84.34" r="1.78" fill="url(#gr3fbf7f)" stroke="#1a2332" stroke-opacity=".28" stroke-width=".5" stroke-linejoin="round"/><circle cx="65.74" cy="85.87" r="1.78" fill="url(#gre06aa6)" stroke="#1a2332" stroke-opacity=".28" stroke-width=".5" stroke-linejoin="round"/><circle cx="67.95" cy="87.14" r="1.78" fill="url(#grf39a3d)" stroke="#1a2332" stroke-opacity=".28" stroke-width=".5" stroke-linejoin="round"/><path d="M54.59 82.04L54.91 77.96L58.03 77.96L58.34 82.04A1.87 1.08 0 0 1 54.59 82.04Z" fill="url(#gh2f6fb0)" stroke="#1a2332" stroke-opacity=".28" stroke-width=".5" stroke-linejoin="round"/><path d="M49.6 77.96L55.84 74.39L57.09 74.39L63.34 77.96A6.87 3.97 0 0 1 49.6 77.96Z" fill="url(#ghe6c27a)" stroke="#1a2332" stroke-opacity=".28" stroke-width=".5" stroke-linejoin="round"/><ellipse cx="62.21" cy="99.13" rx="3.2" ry="1.85" fill="#1a2332" opacity="0.1"/><path d="M61.33 99.13L61.33 94.64L63.08 94.64L63.08 99.13A0.87 0.5 0 0 1 61.33 99.13Z" fill="url(#gha8673f)" stroke="#1a2332" stroke-opacity=".28" stroke-width=".5" stroke-linejoin="round"/><ellipse cx="62.21" cy="94.64" rx="0.87" ry="0.5" fill="#c29579" stroke="#1a2332" stroke-opacity=".28" stroke-width=".5" stroke-linejoin="round"/><circle cx="62.21" cy="91.78" r="4.08" fill="url(#gr3f8f55)" stroke="#1a2332" stroke-opacity=".28" stroke-width=".5" stroke-linejoin="round"/><ellipse cx="25.77" cy="79.36" rx="2.8" ry="1.62" fill="#1a2332" opacity="0.1"/><path d="M25.01 79.36L25.01 75.44L26.54 75.44L26.54 79.36A0.77 0.44 0 0 1 25.01 79.36Z" fill="url(#gha8673f)" stroke="#1a2332" stroke-opacity=".28" stroke-width=".5" stroke-linejoin="round"/><ellipse cx="25.77" cy="75.44" rx="0.77" ry="0.44" fill="#c29579" stroke="#1a2332" stroke-opacity=".28" stroke-width=".5" stroke-linejoin="round"/><circle cx="25.77" cy="72.94" r="3.57" fill="url(#gr2f9d63)" stroke="#1a2332" stroke-opacity=".28" stroke-width=".5" stroke-linejoin="round"/></svg>