<svg xmlns="http://www.w3.org/2000/svg" viewBox="14.06 28.69 91.87 91.87" width="240" height="240"><defs></defs><ellipse cx="60" cy="109" rx="40" ry="7" fill="#1a2332" opacity=".16"/><path d="M15.83 86.63L60 112.13L60 105.5L15.83 80Z" fill="#324059" stroke="#1a2332" stroke-opacity=".28" stroke-width=".5" stroke-linejoin="round"/><path d="M104.17 86.63L60 112.13L60 105.5L104.17 80Z" fill="#242e40" stroke="#1a2332" stroke-opacity=".28" stroke-width=".5" stroke-linejoin="round"/><path d="M60 54.5L104.17 80L60 105.5L15.83 80Z" fill="#e6dcc6" stroke="#1a2332" stroke-opacity=".28" stroke-width=".5" stroke-linejoin="round"/><path d="M40.12 76.18L66.63 91.48L66.63 71.07L40.12 55.78Z" fill="#a9afba" stroke="#1a2332" stroke-opacity=".28" stroke-width=".5" stroke-linejoin="round"/><path d="M86.5 80L66.63 91.48L66.63 71.07L86.5 59.6Z" fill="#7f838c" stroke="#1a2332" stroke-opacity=".28" stroke-width=".5" stroke-linejoin="round"/><path d="M60 44.3L86.5 59.6L66.63 71.07L40.12 55.78Z" fill="#bcc1c9" stroke="#1a2332" stroke-opacity=".28" stroke-width=".5" stroke-linejoin="round"/><path d="M60 41.75L90.92 59.6L78.77 58.45L47.85 40.6Z" fill="#79818f" stroke="#1a2332" stroke-opacity=".28" stroke-width=".5" stroke-linejoin="round"/><path d="M88.27 59.6L66.63 72.1L77.45 57.69Z" fill="#545d6d" stroke="#1a2332" stroke-opacity=".28" stroke-width=".5" stroke-linejoin="round"/><path d="M35.71 55.78L66.63 73.63L78.77 58.45L47.85 40.6Z" fill="#5b6577" stroke="#1a2332" stroke-opacity=".28" stroke-width=".5" stroke-linejoin="round"/><path d="M44.52 73.64L59.98 82.56L59.98 71.09L44.52 62.16Z" fill="#2b3240"/><path d="M45.82 74.42L45.82 62.94" stroke="#c9d0dc" stroke-width="0.7" stroke-linecap="round" fill="none"/><path d="M47.81 75.56L47.81 64.09" stroke="#c9d0dc" stroke-width="0.7" stroke-linecap="round" fill="none"/><path d="M49.8 76.71L49.8 65.24" stroke="#c9d0dc" stroke-width="0.7" stroke-linecap="round" fill="none"/><path d="M51.78 77.86L51.78 66.38" stroke="#c9d0dc" stroke-width="0.7" stroke-linecap="round" fill="none"/><path d="M53.77 79.01L53.77 67.53" stroke="#c9d0dc" stroke-width="0.7" stroke-linecap="round" fill="none"/><path d="M55.76 80.15L55.76 68.68" stroke="#c9d0dc" stroke-width="0.7" stroke-linecap="round" fill="none"/><path d="M57.75 81.3L57.75 69.83" stroke="#c9d0dc" stroke-width="0.7" stroke-linecap="round" fill="none"/><path d="M59.73 82.45L59.73 70.97" stroke="#c9d0dc" stroke-width="0.7" stroke-linecap="round" fill="none"/><path d="M84.73 72.02L78.37 75.69L78.37 70.38L84.73 66.71Z" fill="#232934"/><path d="M74.8 77.76L68.44 81.43L68.44 76.12L74.8 72.45Z" fill="#232934"/><path d="M48.3 64.83L56.25 69.42L56.25 65.34L48.3 60.75Z" fill="#f5c86b" stroke="#1a2332" stroke-opacity=".28" stroke-width=".5" stroke-linejoin="round"/><path d="M56.91 69.04L56.25 69.42L56.25 65.34L56.91 64.96Z" fill="#b89650" stroke="#1a2332" stroke-opacity=".28" stroke-width=".5" stroke-linejoin="round"/><path d="M48.96 60.37L56.91 64.96L56.25 65.34L48.3 60.75Z" fill="#f7d48c" stroke="#1a2332" stroke-opacity=".28" stroke-width=".5" stroke-linejoin="round"/><text x="52.27" y="66.85" font-family="Chakra Petch, sans-serif" font-weight="700" font-size="3.4" fill="#1a2332" text-anchor="middle">คุก</text></svg>