<svg xmlns="http://www.w3.org/2000/svg" viewBox="6.93 11.91 106.13 106.13" width="240" height="240"><defs><linearGradient id="ghf6f1e6" x1="0" x2="1" y1="0" y2="0"><stop offset="0" stop-color="#f9f5ed"/><stop offset=".45" stop-color="#f6f1e6"/><stop offset="1" stop-color="#a7a49c"/></linearGradient><radialGradient id="grfbf7ee" cx=".35" cy=".3" r=".75"><stop offset="0" stop-color="#fdfbf6"/><stop offset=".55" stop-color="#fbf7ee"/><stop offset="1" stop-color="#a3a19b"/></radialGradient><linearGradient id="gha8673f" x1="0" x2="1" y1="0" y2="0"><stop offset="0" stop-color="#c09275"/><stop offset=".45" stop-color="#a8673f"/><stop offset="1" stop-color="#72462b"/></linearGradient><radialGradient id="gr2f9d63" cx=".35" cy=".3" r=".75"><stop offset="0" stop-color="#8dc9a9"/><stop offset=".55" stop-color="#2f9d63"/><stop offset="1" stop-color="#1f6640"/></radialGradient></defs><ellipse cx="60" cy="109" rx="40" ry="7" fill="#1a2332" opacity=".16"/><path d="M15.83 86.63L60 112.13L60 105.5L15.83 80Z" fill="#a0623c" stroke="#1a2332" stroke-opacity=".28" stroke-width=".5" stroke-linejoin="round"/><path d="M104.17 86.63L60 112.13L60 105.5L104.17 80Z" fill="#72462b" stroke="#1a2332" stroke-opacity=".28" stroke-width=".5" stroke-linejoin="round"/><path d="M60 54.5L104.17 80L60 105.5L15.83 80Z" fill="#8fcf7a" stroke="#1a2332" stroke-opacity=".28" stroke-width=".5" stroke-linejoin="round"/><path d="M60 54.5L104.17 80L88.71 88.93L44.54 63.43Z" fill="#5fb6e6"/><path d="M57.79 55.72q2 -1.2 4 0t4 0" stroke="#ffffff" stroke-opacity=".7" stroke-width=".8" fill="none" stroke-linecap="round"/><path d="M57.79 63.37q2 -1.2 4 0t4 0" stroke="#ffffff" stroke-opacity=".7" stroke-width=".8" fill="none" stroke-linecap="round"/><path d="M57.79 71.02q2 -1.2 4 0t4 0" stroke="#ffffff" stroke-opacity=".7" stroke-width=".8" fill="none" stroke-linecap="round"/><ellipse cx="57.79" cy="86.38" rx="9.99" ry="5.77" fill="#1a2332" opacity="0.1"/><path d="M45.3 86.38L45.3 81.28L50.92 81.28L52.17 40.48L46.55 36.65L46.55 30.28L52.17 27.73L55.61 22.63L59.98 22.63L63.41 27.73L69.03 30.28L69.03 36.65L63.41 40.48L64.66 81.28L70.28 81.28L70.28 86.38A12.49 7.21 0 0 1 45.3 86.38Z" fill="url(#ghf6f1e6)" stroke="#1a2332" stroke-opacity=".28" stroke-width=".5" stroke-linejoin="round"/><path d="M45.3 81.28A12.49 7.21 0 0 0 70.28 81.28" fill="none" stroke="#f5c86b" stroke-width="0.9"/><path d="M46.55 36.65A11.24 6.49 0 0 0 69.03 36.65" fill="none" stroke="#f5c86b" stroke-width="0.9"/><path d="M46.55 30.28A11.24 6.49 0 0 0 69.03 30.28" fill="none" stroke="#f5c86b" stroke-width="0.9"/><path d="M55.96 34.35L57.37 35.17L57.37 31.28L55.96 30.46Z" fill="#7cc4ea"/><circle cx="57.79" cy="18.03" r="4.08" fill="url(#grfbf7ee)" stroke="#1a2332" stroke-opacity=".28" stroke-width=".5" stroke-linejoin="round"/><ellipse cx="33.5" cy="80" rx="3.6" ry="2.08" fill="#1a2332" opacity="0.1"/><path d="M32.52 80L32.52 74.95L34.48 74.95L34.48 80A0.98 0.57 0 0 1 32.52 80Z" fill="url(#gha8673f)" stroke="#1a2332" stroke-opacity=".28" stroke-width=".5" stroke-linejoin="round"/><ellipse cx="33.5" cy="74.95" rx="0.98" ry="0.57" fill="#c29579" stroke="#1a2332" stroke-opacity=".28" stroke-width=".5" stroke-linejoin="round"/><circle cx="33.5" cy="71.74" r="4.59" fill="url(#gr2f9d63)" stroke="#1a2332" stroke-opacity=".28" stroke-width=".5" stroke-linejoin="round"/><ellipse cx="79.88" cy="86.38" rx="3.2" ry="1.85" fill="#1a2332" opacity="0.1"/><path d="M79 86.38L79 81.89L80.75 81.89L80.75 86.38A0.87 0.5 0 0 1 79 86.38Z" fill="url(#gha8673f)" stroke="#1a2332" stroke-opacity=".28" stroke-width=".5" stroke-linejoin="round"/><ellipse cx="79.88" cy="81.89" rx="0.87" ry="0.5" fill="#c29579" stroke="#1a2332" stroke-opacity=".28" stroke-width=".5" stroke-linejoin="round"/><circle cx="79.88" cy="79.03" r="4.08" fill="url(#gr2f9d63)" stroke="#1a2332" stroke-opacity=".28" stroke-width=".5" stroke-linejoin="round"/></svg>