<svg xmlns="http://www.w3.org/2000/svg" viewBox="14.06 33.67 91.87 91.87" width="240" height="240"><defs><linearGradient id="gha8673f" x1="0" x2="1" y1="0" y2="0"><stop offset="0" stop-color="#c09275"/><stop offset=".45" stop-color="#a8673f"/><stop offset="1" stop-color="#72462b"/></linearGradient><radialGradient id="gr2f9d63" cx=".35" cy=".3" r=".75"><stop offset="0" stop-color="#8dc9a9"/><stop offset=".55" stop-color="#2f9d63"/><stop offset="1" stop-color="#1f6640"/></radialGradient><radialGradient id="gr3f8f5a" cx=".35" cy=".3" r=".75"><stop offset="0" stop-color="#95c1a4"/><stop offset=".55" stop-color="#3f8f5a"/><stop offset="1" stop-color="#295d3b"/></radialGradient></defs><ellipse cx="60" cy="109" rx="40" ry="7" fill="#1a2332" opacity=".16"/><path d="M15.83 86.63L60 112.13L60 105.5L15.83 80Z" fill="#c24b8e" stroke="#1a2332" stroke-opacity=".28" stroke-width=".5" stroke-linejoin="round"/><path d="M104.17 86.63L60 112.13L60 105.5L104.17 80Z" fill="#8b3665" stroke="#1a2332" stroke-opacity=".28" stroke-width=".5" stroke-linejoin="round"/><path d="M60 54.5L104.17 80L60 105.5L15.83 80Z" fill="#5fb6e6" stroke="#1a2332" stroke-opacity=".28" stroke-width=".5" stroke-linejoin="round"/><path d="M26.87 73.57q2 -1.2 4 0t4 0" stroke="#ffffff" stroke-opacity=".7" stroke-width=".8" fill="none" stroke-linecap="round"/><path d="M26.87 81.22q2 -1.2 4 0t4 0" stroke="#ffffff" stroke-opacity=".7" stroke-width=".8" fill="none" stroke-linecap="round"/><path d="M26.87 88.87q2 -1.2 4 0t4 0" stroke="#ffffff" stroke-opacity=".7" stroke-width=".8" fill="none" stroke-linecap="round"/><path d="M35.05 70.18L36.15 70.82L70.38 90.58L75.9 89.18L74.8 88.03L40.57 68.27Z" fill="#d9443b" stroke="#1a2332" stroke-opacity=".28" stroke-width=".5" stroke-linejoin="round"/><path d="M75.9 89.18q4 -4 1.5 -9q-1 -2 1.5 -3" stroke="#f5c86b" stroke-width="2.2" fill="none" stroke-linecap="round"/><circle cx="79.1" cy="76.98" r="1.8" fill="#f5c86b"/><path d="M35.05 70.18q-3 -3 -1.5 -7" stroke="#f5c86b" stroke-width="1.8" fill="none" stroke-linecap="round"/><circle cx="40.57" cy="67.25" r="1.1" fill="#f2c79b"/><path d="M40.57 68.25L35.27 74.39" stroke="#a8673f" stroke-width="0.6" stroke-linecap="round" fill="none"/><circle cx="44.1" cy="69.29" r="1.1" fill="#f2c79b"/><path d="M44.1 70.29L38.8 76.43" stroke="#a8673f" stroke-width="0.6" stroke-linecap="round" fill="none"/><circle cx="47.63" cy="71.33" r="1.1" fill="#f2c79b"/><path d="M47.63 72.33L42.33 78.47" stroke="#a8673f" stroke-width="0.6" stroke-linecap="round" fill="none"/><circle cx="51.17" cy="73.37" r="1.1" fill="#f2c79b"/><path d="M51.17 74.37L45.87 80.51" stroke="#a8673f" stroke-width="0.6" stroke-linecap="round" fill="none"/><circle cx="54.7" cy="75.41" r="1.1" fill="#f2c79b"/><path d="M54.7 76.41L49.4 82.55" stroke="#a8673f" stroke-width="0.6" stroke-linecap="round" fill="none"/><circle cx="58.23" cy="77.45" r="1.1" fill="#f2c79b"/><path d="M58.23 78.45L52.93 84.59" stroke="#a8673f" stroke-width="0.6" stroke-linecap="round" fill="none"/><circle cx="61.77" cy="79.49" r="1.1" fill="#f2c79b"/><path d="M61.77 80.49L56.47 86.63" stroke="#a8673f" stroke-width="0.6" stroke-linecap="round" fill="none"/><circle cx="65.3" cy="81.53" r="1.1" fill="#f2c79b"/><path d="M65.3 82.53L60 88.67" stroke="#a8673f" stroke-width="0.6" stroke-linecap="round" fill="none"/><circle cx="68.83" cy="83.57" r="1.1" fill="#f2c79b"/><path d="M68.83 84.57L63.53 90.71" stroke="#a8673f" stroke-width="0.6" stroke-linecap="round" fill="none"/><ellipse cx="62.21" cy="63.43" rx="3.6" ry="2.08" fill="#1a2332" opacity="0.1"/><path d="M61.22 63.43L61.22 58.38L63.19 58.38L63.19 63.43A0.98 0.57 0 0 1 61.22 63.43Z" fill="url(#gha8673f)" stroke="#1a2332" stroke-opacity=".28" stroke-width=".5" stroke-linejoin="round"/><ellipse cx="62.21" cy="58.38" rx="0.98" ry="0.57" fill="#c29579" stroke="#1a2332" stroke-opacity=".28" stroke-width=".5" stroke-linejoin="round"/><circle cx="62.21" cy="55.16" r="4.59" fill="url(#gr2f9d63)" stroke="#1a2332" stroke-opacity=".28" stroke-width=".5" stroke-linejoin="round"/><ellipse cx="90.92" cy="77.45" rx="4.4" ry="2.54" fill="#1a2332" opacity="0.1"/><path d="M89.71 77.45L89.71 71.28L92.12 71.28L92.12 77.45A1.2 0.69 0 0 1 89.71 77.45Z" fill="url(#gha8673f)" stroke="#1a2332" stroke-opacity=".28" stroke-width=".5" stroke-linejoin="round"/><ellipse cx="90.92" cy="71.28" rx="1.2" ry="0.69" fill="#c29579" stroke="#1a2332" stroke-opacity=".28" stroke-width=".5" stroke-linejoin="round"/><circle cx="90.92" cy="67.35" r="5.61" fill="url(#gr3f8f5a)" stroke="#1a2332" stroke-opacity=".28" stroke-width=".5" stroke-linejoin="round"/></svg>