<svg xmlns="http://www.w3.org/2000/svg" viewBox="8.73 15.43 102.54 102.54" width="240" height="240"><defs><linearGradient id="ghc9bfac" x1="0" x2="1" y1="0" y2="0"><stop offset="0" stop-color="#d8d1c3"/><stop offset=".45" stop-color="#c9bfac"/><stop offset="1" stop-color="#898275"/></linearGradient><radialGradient id="gr4f9a5e" cx=".35" cy=".3" r=".75"><stop offset="0" stop-color="#9ec7a6"/><stop offset=".55" stop-color="#4f9a5e"/><stop offset="1" stop-color="#33643d"/></radialGradient><radialGradient id="gr5aa86a" cx=".35" cy=".3" r=".75"><stop offset="0" stop-color="#a4cfad"/><stop offset=".55" stop-color="#5aa86a"/><stop offset="1" stop-color="#3b6d45"/></radialGradient><linearGradient id="ghecd9a6" x1="0" x2="1" y1="0" y2="0"><stop offset="0" stop-color="#f1e4bf"/><stop offset=".45" stop-color="#ecd9a6"/><stop offset="1" stop-color="#a09471"/></linearGradient></defs><ellipse cx="60" cy="109" rx="40" ry="7" fill="#1a2332" opacity=".16"/><path d="M15.83 86.63L60 112.13L60 105.5L15.83 80Z" fill="#129287" stroke="#1a2332" stroke-opacity=".28" stroke-width=".5" stroke-linejoin="round"/><path d="M104.17 86.63L60 112.13L60 105.5L104.17 80Z" fill="#0d6961" stroke="#1a2332" stroke-opacity=".28" stroke-width=".5" stroke-linejoin="round"/><path d="M60 54.5L104.17 80L60 105.5L15.83 80Z" fill="#5fb6e6" stroke="#1a2332" stroke-opacity=".28" stroke-width=".5" stroke-linejoin="round"/><path d="M29.08 72.3q2 -1.2 4 0t4 0" stroke="#ffffff" stroke-opacity=".7" stroke-width=".8" fill="none" stroke-linecap="round"/><path d="M29.08 79.95q2 -1.2 4 0t4 0" stroke="#ffffff" stroke-opacity=".7" stroke-width=".8" fill="none" stroke-linecap="round"/><path d="M29.08 87.6q2 -1.2 4 0t4 0" stroke="#ffffff" stroke-opacity=".7" stroke-width=".8" fill="none" stroke-linecap="round"/><path d="M47.17 65.97L46.96 55.77L48.77 43.54L48.24 33.33L51.42 25.17L64.16 25.17L67.35 33.33L66.82 43.54L68.62 55.77L68.41 65.97A10.62 6.13 0 0 1 47.17 65.97Z" fill="url(#ghc9bfac)" stroke="#1a2332" stroke-opacity=".28" stroke-width=".5" stroke-linejoin="round"/><path d="M51.42 70.88L51.29 60.78L52.38 47.7L52.06 37.75L53.97 28.12" fill="none" stroke="#8d8678" stroke-opacity=".55" stroke-width=".5"/><path d="M55.67 71.98L55.63 61.9L55.99 48.64L55.88 38.74L56.52 28.78" fill="none" stroke="#8d8678" stroke-opacity=".55" stroke-width=".5"/><path d="M59.92 71.98L59.96 61.9L59.6 48.64L59.7 38.74L59.07 28.78" fill="none" stroke="#8d8678" stroke-opacity=".55" stroke-width=".5"/><path d="M64.16 70.88L64.29 60.78L63.21 47.7L63.53 37.75L61.61 28.12" fill="none" stroke="#8d8678" stroke-opacity=".55" stroke-width=".5"/><circle cx="57.79" cy="23.44" r="6.04" fill="url(#gr4f9a5e)" stroke="#1a2332" stroke-opacity=".28" stroke-width=".5" stroke-linejoin="round"/><circle cx="52.91" cy="22.99" r="4.85" fill="url(#gr5aa86a)" stroke="#1a2332" stroke-opacity=".28" stroke-width=".5" stroke-linejoin="round"/><circle cx="61.92" cy="25.47" r="5.09" fill="url(#gr5aa86a)" stroke="#1a2332" stroke-opacity=".28" stroke-width=".5" stroke-linejoin="round"/><circle cx="54.79" cy="26.81" r="4.61" fill="url(#gr5aa86a)" stroke="#1a2332" stroke-opacity=".28" stroke-width=".5" stroke-linejoin="round"/><path d="M74.92 78.72L74.74 70.44L76.33 60.49L75.86 52.21L78.67 45.58L89.91 45.58L92.72 52.21L92.26 60.49L93.85 70.44L93.66 78.72A9.37 5.41 0 0 1 74.92 78.72Z" fill="url(#ghc9bfac)" stroke="#1a2332" stroke-opacity=".28" stroke-width=".5" stroke-linejoin="round"/><path d="M78.67 83.05L78.56 74.85L79.51 64.17L79.23 56.1L80.92 48.17" fill="none" stroke="#8d8678" stroke-opacity=".55" stroke-width=".5"/><path d="M82.42 84.03L82.38 75.84L82.7 65L82.61 56.98L83.17 48.76" fill="none" stroke="#8d8678" stroke-opacity=".55" stroke-width=".5"/><path d="M86.17 84.03L86.2 75.84L85.88 65L85.98 56.98L85.42 48.76" fill="none" stroke="#8d8678" stroke-opacity=".55" stroke-width=".5"/><path d="M89.91 83.05L90.03 74.85L89.07 64.17L89.35 56.1L87.66 48.17" fill="none" stroke="#8d8678" stroke-opacity=".55" stroke-width=".5"/><circle cx="84.29" cy="43.69" r="5.48" fill="url(#gr4f9a5e)" stroke="#1a2332" stroke-opacity=".28" stroke-width=".5" stroke-linejoin="round"/><circle cx="79.99" cy="43.37" r="4.43" fill="url(#gr5aa86a)" stroke="#1a2332" stroke-opacity=".28" stroke-width=".5" stroke-linejoin="round"/><circle cx="87.94" cy="45.54" r="4.64" fill="url(#gr5aa86a)" stroke="#1a2332" stroke-opacity=".28" stroke-width=".5" stroke-linejoin="round"/><circle cx="81.64" cy="46.75" r="4.22" fill="url(#gr5aa86a)" stroke="#1a2332" stroke-opacity=".28" stroke-width=".5" stroke-linejoin="round"/><path d="M44.39 80L45.63 78.47L74.37 78.47L75.61 80A15.61 9.02 0 0 1 44.39 80Z" fill="url(#ghecd9a6)" stroke="#1a2332" stroke-opacity=".28" stroke-width=".5" stroke-linejoin="round"/><ellipse cx="60" cy="78.47" rx="14.37" ry="8.29" fill="#f2e4c1" stroke="#1a2332" stroke-opacity=".28" stroke-width=".5" stroke-linejoin="round"/><path d="M58.9 78.09Q56.9 70.53 60.55 62.98" stroke="#a8673f" stroke-width="1.2" fill="none" stroke-linecap="round"/><path d="M60.55 62.98q-2.62 -0.75 -5.25 1.5" stroke="#2f9d63" stroke-width="1.35" fill="none" stroke-linecap="round"/><path d="M60.55 62.98q2.63 -0.37 5.25 1.88" stroke="#2f9d63" stroke-width="1.35" fill="none" stroke-linecap="round"/><path d="M60.55 62.98q-1.87 -4.5 -3.75 -2.25" stroke="#2f9d63" stroke-width="1.35" fill="none" stroke-linecap="round"/><path d="M60.55 62.98q1.88 -4.87 3.75 -2.62" stroke="#2f9d63" stroke-width="1.35" fill="none" stroke-linecap="round"/><path d="M60.55 62.98q0 -6 0 -3.75" stroke="#2f9d63" stroke-width="1.35" fill="none" stroke-linecap="round"/><circle cx="60.55" cy="63.98" r="0.68" fill="#a8673f"/><path d="M63.31 83.19Q61.31 77.14 64.64 71.1" stroke="#a8673f" stroke-width="0.96" fill="none" stroke-linecap="round"/><path d="M64.64 71.1q-2.1 -0.6 -4.2 1.2" stroke="#2f9d63" stroke-width="1.08" fill="none" stroke-linecap="round"/><path d="M64.64 71.1q2.1 -0.3 4.2 1.5" stroke="#2f9d63" stroke-width="1.08" fill="none" stroke-linecap="round"/><path d="M64.64 71.1q-1.5 -3.6 -3 -1.8" stroke="#2f9d63" stroke-width="1.08" fill="none" stroke-linecap="round"/><path d="M64.64 71.1q1.5 -3.9 3 -2.1" stroke="#2f9d63" stroke-width="1.08" fill="none" stroke-linecap="round"/><path d="M64.64 71.1q0 -4.8 0 -3" stroke="#2f9d63" stroke-width="1.08" fill="none" stroke-linecap="round"/><circle cx="64.64" cy="72.1" r="0.54" fill="#a8673f"/><path d="M44.54 83.83L57.79 90.71L58.9 90.58L53.37 93.26L40.12 86.38Z" fill="#a8673f" stroke="#1a2332" stroke-opacity=".28" stroke-width=".5" stroke-linejoin="round"/><path d="M58.9 90.58l2 -3" stroke="#a8673f" stroke-width="1"/><path d="M60.9 87.58l2 1.2-1 1.2z" fill="#d9443b"/><path d="M45.42 87.65L49.84 90.2L49.84 86.63L45.42 84.08Z" fill="#efe3c8" stroke="#1a2332" stroke-opacity=".28" stroke-width=".5" stroke-linejoin="round"/><path d="M52.49 88.67L49.84 90.2L49.84 86.63L52.49 85.1Z" fill="#b3aa96" stroke="#1a2332" stroke-opacity=".28" stroke-width=".5" stroke-linejoin="round"/><path d="M48.07 82.55L52.49 85.1L49.84 86.63L45.42 84.08Z" fill="#f3e9d4" stroke="#1a2332" stroke-opacity=".28" stroke-width=".5" stroke-linejoin="round"/></svg>